HIERARCHY
ROOT Hips
{
	OFFSET 0.000000 0.000000 0.000000
	CHANNELS 6 Xposition Yposition Zposition Yrotation Xrotation Zrotation
	JOINT Chest
	{
		OFFSET 0.000000 -0.009281 11.569106
		CHANNELS 3 Yrotation Xrotation Zrotation
		JOINT Chest2
		{
			OFFSET -0.000000 0.016865 9.269641
			CHANNELS 3 Yrotation Xrotation Zrotation
			JOINT Chest3
			{
				OFFSET -0.000000 0.000001 8.374491
				CHANNELS 3 Yrotation Xrotation Zrotation
				JOINT Chest4
				{
					OFFSET -0.000000 0.000001 8.374493
					CHANNELS 3 Yrotation Xrotation Zrotation
					JOINT Neck
					{
						OFFSET -0.000000 0.000002 12.152554
						CHANNELS 3 Yrotation Xrotation Zrotation
						JOINT Head
						{
							OFFSET -0.000000 0.040101 7.802319
							CHANNELS 3 Yrotation Xrotation Zrotation
							End Site
							{
								OFFSET -0.000000 0.020947 14.853096
							}
						}
					}
					JOINT RightCollar
					{
						OFFSET 2.894404 0.000001 6.791374
						CHANNELS 3 Yrotation Xrotation Zrotation
						JOINT RightShoulder
						{
							OFFSET 13.574684 0.000001 0.000000
							CHANNELS 3 Yrotation Xrotation Zrotation
							JOINT RightElbow
							{
								OFFSET 23.923903 0.000002 0.000000
								CHANNELS 3 Yrotation Xrotation Zrotation
								JOINT RightWrist
								{
									OFFSET 19.846718 0.012767 0.000000
									CHANNELS 3 Yrotation Xrotation Zrotation
									End Site
									{
										OFFSET 14.973145 0.000001 0.000000
									}
								}
							}
						}
					}
					JOINT LeftCollar
					{
						OFFSET -2.894404 0.000001 6.791374
						CHANNELS 3 Yrotation Xrotation Zrotation
						JOINT LeftShoulder
						{
							OFFSET -13.574684 -0.000001 0.000000
							CHANNELS 3 Yrotation Xrotation Zrotation
							JOINT LeftElbow
							{
								OFFSET -23.923903 -0.000002 0.000000
								CHANNELS 3 Yrotation Xrotation Zrotation
								JOINT LeftWrist
								{
									OFFSET -19.846718 0.012763 0.000000
									CHANNELS 3 Yrotation Xrotation Zrotation
									End Site
									{
										OFFSET -14.973145 -0.000001 0.000000
									}
								}
							}
						}
					}
				}
			}
		}
	}
	JOINT RightHip
	{
		OFFSET 9.469263 0.004643 0.045487
		CHANNELS 3 Yrotation Xrotation Zrotation
		JOINT RightKnee
		{
			OFFSET 0.000000 0.002661 -40.478676
			CHANNELS 3 Yrotation Xrotation Zrotation
			JOINT RightAnkle
			{
				OFFSET 0.000000 0.049106 -35.224068
				CHANNELS 3 Yrotation Xrotation Zrotation
				JOINT RightToe
				{
					OFFSET -0.000001 12.539529 -6.151390
					CHANNELS 3 Yrotation Xrotation Zrotation
					End Site
					{
						OFFSET -0.000001 5.044994 -1.291870
					}
				}
			}
		}
	}
	JOINT LeftHip
	{
		OFFSET -9.469263 0.004641 0.045487
		CHANNELS 3 Yrotation Xrotation Zrotation
		JOINT LeftKnee
		{
			OFFSET 0.000000 0.002661 -40.478676
			CHANNELS 3 Yrotation Xrotation Zrotation
			JOINT LeftAnkle
			{
				OFFSET 0.000000 0.049106 -35.224068
				CHANNELS 3 Yrotation Xrotation Zrotation
				JOINT LeftToe
				{
					OFFSET -0.000001 12.539529 -6.151390
					CHANNELS 3 Yrotation Xrotation Zrotation
					End Site
					{
						OFFSET -0.000001 5.044994 -1.291870
					}
				}
			}
		}
	}
}
MOTION
Frames: 11
Frame Time: 0.016667
13.525370 6.169562 83.328163 -1.929768 -0.035695 -102.056277 -0.627532 -5.205202 2.226218 -0.228125 -2.324030 0.963469 -0.228125 -2.324031 0.963469 -0.167405 -1.743387 0.721636 1.526828 -13.032946 -3.223541 1.573809 11.977490 -5.491626 0.320304 11.451754 0.945336 68.426433 31.220730 79.874650 44.163095 36.776098 49.822296 6.236814 36.136410 -14.669609 -3.538172 4.410645 -15.558739 -69.417931 35.654216 -81.260113 -32.852838 34.320294 -43.859329 0.790683 46.316008 14.580613 -1.600047 -4.665833 -2.297714 3.294301 -5.111063 -11.733038 -0.692858 5.459638 0.480050 0.137376 -0.157632 -0.010256 -0.768546 -5.283647 1.578251 0.442489 -3.173677 -0.481292 -3.597021 4.031558 -2.518473 0.292545 -0.048936 0.019586 
13.556177 6.185786 83.327454 -1.994384 -0.031823 -102.049098 -0.621296 -5.229916 2.181223 -0.224337 -2.331938 0.946732 -0.224337 -2.331940 0.946732 -0.164615 -1.749307 0.709095 1.500883 -12.877927 -3.325148 1.477442 12.262428 -5.698273 0.093463 11.766278 0.832910 67.868380 31.486069 79.788098 43.131968 37.287983 48.776857 9.242615 34.358860 -14.203132 -3.253321 4.659982 -15.464672 -68.779595 36.079426 -81.345716 -31.260478 34.967563 -42.081308 -3.590374 44.460263 12.376096 -1.615286 -4.785393 -2.392672 3.258889 -5.052692 -11.723226 -0.670735 5.505354 0.552092 0.118527 -0.164033 -0.013119 -0.796613 -5.372619 1.552901 0.442992 -3.154217 -0.403748 -3.655329 4.015830 -2.569377 0.286249 -0.036289 0.021014 
13.584312 6.202445 83.329567 -2.052113 -0.029447 -102.068414 -0.586702 -5.235217 2.122007 -0.208924 -2.332704 0.922892 -0.208924 -2.332704 0.922892 -0.153147 -1.749848 0.691274 1.441004 -12.724853 -3.421388 1.318216 12.542378 -5.909387 -0.145548 12.035682 0.809975 67.266476 31.756302 79.683050 41.907117 37.721673 47.575874 12.073236 32.962203 -13.790949 -3.009316 4.771070 -15.317626 -68.194173 36.526189 -81.566023 -29.275034 35.453463 -40.077006 -8.591522 42.083312 10.036983 -1.633063 -4.896502 -2.471649 3.223527 -4.983172 -11.694769 -0.633796 5.530268 0.622792 0.090482 -0.162966 -0.016313 -0.822137 -5.458287 1.550104 0.439912 -3.128509 -0.352895 -3.705443 3.990103 -2.603539 0.278090 -0.018760 0.022577 
13.607086 6.222093 83.332741 -2.101006 -0.023115 -102.103487 -0.563865 -5.279335 2.094656 -0.197767 -2.351775 0.912456 -0.197767 -2.351775 0.912456 -0.144791 -1.764131 0.683483 1.388154 -12.540294 -3.542190 1.160086 12.880028 -6.165914 -0.346941 12.432774 0.792538 66.487964 32.040762 79.500861 40.534888 38.185747 46.252433 14.560777 31.569254 -13.388426 -2.779248 4.951556 -15.227217 -67.528748 37.079178 -81.763129 -27.456626 35.755050 -38.077949 -13.401323 39.609182 8.223819 -1.659203 -4.989413 -2.539250 3.194091 -4.917457 -11.661268 -0.593722 5.550295 0.686098 0.063230 -0.161665 -0.021953 -0.851467 -5.533680 1.563213 0.434044 -3.098003 -0.310689 -3.748414 3.955799 -2.627717 0.269102 -0.001077 0.023933 
13.625005 6.241467 83.335342 -2.138744 -0.010926 -102.143355 -0.546254 -5.321603 2.059052 -0.189944 -2.369868 0.897868 -0.189944 -2.369868 0.897867 -0.138954 -1.777685 0.672568 1.334832 -12.361310 -3.655793 1.003294 13.207014 -6.409759 -0.567284 12.835876 0.793777 65.721815 32.348080 79.307874 39.108949 38.565164 44.859412 16.839652 30.090053 -12.911873 -2.529143 5.154821 -15.088877 -66.790111 37.674162 -81.853841 -25.844896 35.871658 -36.175219 -17.587669 36.946484 6.955788 -1.688937 -5.069801 -2.587063 3.167879 -4.842306 -11.651087 -0.558112 5.566625 0.752369 0.042384 -0.164424 -0.026436 -0.882765 -5.593388 1.585327 0.423933 -3.066786 -0.257319 -3.792903 3.915870 -2.647284 0.264283 0.014068 0.025809 
13.640944 6.262440 83.338341 -2.177396 0.006248 -102.176830 -0.546193 -5.372014 2.029553 -0.189244 -2.390498 0.887002 -0.189244 -2.390498 0.887003 -0.138442 -1.793153 0.664414 1.296922 -12.187009 -3.775061 0.872766 13.525384 -6.658689 -0.735864 13.295539 0.847137 64.817956 32.701532 78.954849 37.793544 38.793262 43.578461 19.021264 28.513335 -12.397011 -2.266386 5.443741 -14.934009 -65.789960 38.115372 -81.770861 -24.014178 35.934025 -34.288485 -21.405405 33.767742 5.989162 -1.722933 -5.152906 -2.629110 3.141503 -4.760848 -11.653545 -0.522825 5.582456 0.828779 0.026009 -0.169266 -0.030575 -0.913750 -5.649965 1.601924 0.409774 -3.037365 -0.196892 -3.841079 3.865066 -2.706094 0.263490 0.032202 0.026514 
13.650938 6.282650 83.343292 -2.215776 0.030195 -102.208276 -0.562509 -5.435080 2.008907 -0.195728 -2.418659 0.877964 -0.195728 -2.418659 0.877964 -0.143298 -1.814280 0.657599 1.273168 -12.007880 -3.896090 0.767393 13.852918 -6.905976 -0.913428 13.664331 0.860173 63.855746 33.039954 78.638768 36.475092 39.005820 42.426700 21.418637 26.910833 -12.031718 -1.933844 5.787824 -14.685950 -64.658997 38.355433 -81.599464 -22.075771 35.965331 -32.589664 -24.747049 30.434493 5.399802 -1.763773 -5.222342 -2.653601 3.122165 -4.691621 -11.662364 -0.495121 5.596217 0.881457 0.013596 -0.169997 -0.034943 -0.952697 -5.696580 1.610558 0.394269 -3.010131 -0.132170 -3.897965 3.799903 -2.722559 0.272027 0.053902 0.029072 
13.652253 6.302712 83.350410 -2.251177 0.054377 -102.238028 -0.563783 -5.498631 1.991782 -0.196012 -2.447922 0.869039 -0.196013 -2.447922 0.869038 -0.143504 -1.836225 0.650894 1.234652 -11.834346 -4.015519 0.633859 14.169029 -7.157210 -1.141507 13.812318 0.835784 63.085191 33.389585 78.577481 35.204646 39.157621 41.391390 23.661889 25.122324 -11.714057 -1.603715 5.999662 -14.464391 -63.786870 38.679570 -81.664945 -20.317798 35.800884 -31.090560 -27.491568 27.264635 5.163202 -1.802190 -5.268119 -2.647549 3.100501 -4.649123 -11.681595 -0.471749 5.606425 0.926528 0.007903 -0.162086 -0.035560 -0.979852 -5.729795 1.625512 0.374466 -2.993656 -0.065599 -3.965429 3.722786 -2.790718 0.283235 0.078152 0.030292 
13.643459 6.320138 83.359482 -2.286343 0.077808 -102.264598 -0.561231 -5.547313 1.969488 -0.195744 -2.471067 0.857488 -0.195744 -2.471069 0.857486 -0.143317 -1.853581 0.642223 1.183926 -11.682350 -4.124023 0.481902 14.444539 -7.392838 -1.297116 13.885211 0.901119 62.419576 33.785251 78.665925 33.886713 39.266949 40.293164 25.414850 23.431558 -11.500816 -1.272255 6.053096 -14.252946 -63.246794 39.103386 -82.029390 -18.722964 35.458883 -29.695764 -29.918503 24.605050 5.375627 -1.837403 -5.297912 -2.622311 3.082598 -4.622032 -11.713562 -0.450246 5.606259 0.960968 0.000154 -0.146763 -0.037060 -1.010883 -5.749649 1.645939 0.361808 -2.984545 -0.013800 -4.035992 3.638919 -2.830630 0.293844 0.098748 0.032177 
13.630142 6.336286 83.369301 -2.317478 0.091461 -102.284753 -0.553131 -5.589861 1.939029 -0.193223 -2.489355 0.844584 -0.193223 -2.489355 0.844584 -0.141453 -1.867289 0.632552 1.125286 -11.550459 -4.221507 0.319913 14.682320 -7.610718 -1.488965 14.059247 0.883762 61.946674 34.072624 78.830587 32.513644 39.247312 39.072626 26.608428 21.646198 -11.342103 -0.924297 6.093301 -14.009152 -62.928247 39.477937 -82.577998 -17.235404 35.070662 -28.406104 -32.334700 21.837257 5.972007 -1.861492 -5.324226 -2.617507 3.064572 -4.594902 -11.722855 -0.428642 5.595121 0.983436 -0.008287 -0.128635 -0.037461 -1.026894 -5.766304 1.674513 0.352239 -2.974435 0.008954 -4.101610 3.557224 -2.871297 0.294406 0.111821 0.031841 
13.614147 6.350818 83.378746 -2.333384 0.100255 -102.307034 -0.547680 -5.634510 1.906232 -0.191418 -2.507880 0.830790 -0.191418 -2.507879 0.830789 -0.140129 -1.881175 0.622208 1.073035 -11.427652 -4.307212 0.175188 14.903698 -7.803456 -1.640555 14.363367 0.879772 61.455863 34.311503 78.903732 31.103073 39.028582 37.861395 27.584429 19.539276 -11.429386 -0.675220 6.240001 -13.864578 -62.604155 39.885470 -83.071021 -15.982665 34.557110 -27.350560 -34.255328 19.174392 7.031403 -1.879890 -5.332265 -2.630410 3.050237 -4.573508 -11.708003 -0.406887 5.578219 1.005764 -0.018375 -0.109881 -0.039297 -1.040877 -5.776773 1.727890 0.345547 -2.944506 0.023220 -4.150641 3.472141 -2.910282 0.283423 0.115450 0.031251 
